<svg xmlns="http://www.w3.org/2000/svg" xmlns:xlink="http://www.w3.org/1999/xlink" version="1.1" x="0px" y="0px" viewBox="0 0 24 30" enable-background="new 0 0 24 24" xml:space="preserve"><path d="M21.25,4H2.75C1.233,4,0,5.233,0,6.75v10.5C0,18.767,1.233,20,2.75,20h18.5c1.517,0,2.75-1.233,2.75-2.75V6.75  C24,5.233,22.767,4,21.25,4z M1.5,17.25V6.75c0-0.156,0.037-0.303,0.089-0.441l6.71,5.249l-6.738,5.996  C1.536,17.454,1.5,17.357,1.5,17.25z M12,12.548L2.99,5.5H21.01L12,12.548z M9.5,12.497l2.038,1.594  c0.136,0.106,0.299,0.159,0.462,0.159s0.326-0.053,0.462-0.159l2.038-1.594l6.746,6.003H2.754L9.5,12.497z M15.701,11.557  l6.71-5.249C22.463,6.447,22.5,6.594,22.5,6.75v10.5c0,0.107-0.036,0.204-0.061,0.303L15.701,11.557z"/><text x="0" y="39" fill="#000000" font-size="5px" font-weight="bold" font-family="'Helvetica Neue', Helvetica, Arial-Unicode, Arial, Sans-serif">Created by Ivan Abirawa</text><text x="0" y="44" fill="#000000" font-size="5px" font-weight="bold" font-family="'Helvetica Neue', Helvetica, Arial-Unicode, Arial, Sans-serif">from the Noun Project</text></svg>