<svg xmlns="http://www.w3.org/2000/svg" xmlns:xlink="http://www.w3.org/1999/xlink" version="1.1" x="0px" y="0px" viewBox="0 0 100 125" style="enable-background:new 0 0 100 100;" xml:space="preserve"><style type="text/css">
	.st0{fill:none;stroke:#000000;stroke-width:6;stroke-linejoin:round;stroke-miterlimit:10;}
	.st1{fill:none;stroke:#000000;stroke-width:4;stroke-linejoin:round;stroke-miterlimit:10;}
	.st2{fill:none;stroke:#000000;stroke-width:4;stroke-linecap:round;stroke-linejoin:round;stroke-miterlimit:10;}
	.st3{fill:none;stroke:#000000;stroke-width:6;stroke-linecap:round;stroke-linejoin:round;stroke-miterlimit:10;}
	.st4{fill:none;stroke:#000000;stroke-width:4;stroke-miterlimit:10;}
	.st5{fill:none;stroke:#000000;stroke-width:4;stroke-linecap:round;stroke-miterlimit:10;}
	.st6{fill:none;stroke:#000000;stroke-width:8;stroke-linecap:round;stroke-linejoin:round;stroke-miterlimit:10;}
	.st7{fill:none;stroke:#231F20;stroke-width:4;stroke-miterlimit:10;}
	.st8{fill:none;stroke:#231F20;stroke-width:4;stroke-linecap:round;stroke-miterlimit:10;}
	.st9{fill:none;stroke:#000000;stroke-width:8;stroke-linejoin:round;stroke-miterlimit:10;}
	.st10{fill:none;stroke:#000000;stroke-width:8;stroke-miterlimit:10;}
	.st11{fill:none;stroke:#000000;stroke-width:4;stroke-linecap:round;stroke-miterlimit:10;stroke-dasharray:0,6;}
	.st12{fill:none;stroke:#FFFFFF;stroke-width:6;stroke-linecap:round;stroke-linejoin:round;stroke-miterlimit:10;}
	.st13{fill:#FFFFFF;}
</style><g><path d="M92.8,71.1L81.4,60.3c-2.5-2.5-4.9-2.9-6.6-2.9c-3.2,0.1-5.3,2-5.9,2.6l-5.8,5.6C57.3,62.7,52,59,47.1,54.3l-0.5-0.4   c-5-4.7-8.9-9.8-12-15.5l5.3-6c0.6-0.6,2.4-2.8,2.3-6c0-1.6-0.6-4.1-3.2-6.4L27.6,9c-0.7-0.8-3-2.9-6.4-3.1c-1.8-0.1-4.6,0.4-7.3,3   c-0.5,0.5-5,4.7-6.7,9.9C6,21.7-2.9,46.3,26.8,74.4l0.6,0.6c16.7,16,31.6,19.8,42,19.8c8,0,13.3-2.2,14.5-2.8   c5.1-2,9.1-6.7,9.5-7.1c2.5-2.9,2.9-5.7,2.7-7.5C95.8,73.9,93.6,71.8,92.8,71.1z M87.4,79.7c-0.9,1-3.7,3.9-6.4,4.9l-0.4,0.2   C80.3,84.8,59.7,94.9,33,69.2l-0.6-0.6C5.7,43.4,14.2,22.7,14.6,21.9l0.2-0.4c0.9-2.8,3.6-5.7,4.6-6.7c0.5-0.5,1.1-0.8,1.4-0.8   c0,0,0,0,0,0c0.4,0,0.8,0.4,0.9,0.5l11.9,11.4c0.5,0.4,0.6,0.7,0.6,0.8c0,0.1-0.1,0.2-0.2,0.4l-8.9,10.2l1.2,2.4   c3.6,7.5,8.5,14.1,14.8,20.1l0.5,0.4c6.3,6,13.2,10.6,20.8,13.8l2.4,1l9.7-9.3l0,0l0.1-0.2c0.1-0.1,0.3-0.2,0.3-0.2   c0.1,0,0.4,0.1,0.9,0.6l11.6,11l0,0l0.3,0.2c0.2,0.1,0.5,0.6,0.6,1C88.2,78.5,87.9,79,87.4,79.7z"/><path d="M51.9,3C51.9,3,51.9,3,51.9,3c-2.2,0-4,1.8-4,4l0,24c0,2.2,1.8,4,4,4c0,0,0,0,0,0c2.2,0,4-1.8,4-4l0-24   C55.9,4.8,54.1,3,51.9,3z"/><path d="M92,43.9l-25,0c-2.2,0-4,1.8-4,4c0,2.2,1.8,4,4,4c0,0,0,0,0,0l25,0c2.2,0,4-1.8,4-4C96,45.7,94.2,43.9,92,43.9   C92,43.9,92,43.9,92,43.9z"/><path d="M86.3,21.4c1.7-1.5,1.8-4,0.4-5.6c-1.5-1.7-4-1.8-5.6-0.4L61,32.8c-1.7,1.5-1.8,4-0.4,5.6c0.8,0.9,1.9,1.4,3,1.4   c0.9,0,1.9-0.3,2.6-1L86.3,21.4z"/></g><text x="0" y="115" fill="#000000" font-size="5px" font-weight="bold" font-family="'Helvetica Neue', Helvetica, Arial-Unicode, Arial, Sans-serif">Created by Icon Master</text><text x="0" y="120" fill="#000000" font-size="5px" font-weight="bold" font-family="'Helvetica Neue', Helvetica, Arial-Unicode, Arial, Sans-serif">from the Noun Project</text></svg>